# xmcd
#
# Track frame offsets:
#	160
#	16017
#	41482
#	59310
#	75020
#	89282
#	97940
#	109380
#	126662
#	138492
#	157152
#
# Disc length: 2280 seconds
#
# Revision: 1
# Processed by: cddbd v1.5.2PL0 Copyright (c) Steve Scherf et al.
# Submitted via: audiograbber 1.83.01
#
DISCID=8608e60b
DTITLE=John Hammond - Nobody But You
DYEAR=1987
DGENRE=Blues
TTITLE0=Ride Till I Die
TTITLE1=Sail On
TTITLE2=Diddly Daddy
TTITLE3=Memphis Town
TTITLE4=Lost Lover Blues
TTITLE5=Nobody But You
TTITLE6=Papa Wants a Cookie
TTITLE7=If I Get Lucky
TTITLE8=Move on up the Line
TTITLE9=Killing Me on My Feet
TTITLE10=Mother in Law Blues
EXTD=ID3G: 0
EXTT0=
EXTT1=
EXTT2=
EXTT3=
EXTT4=
EXTT5=
EXTT6=
EXTT7=
EXTT8=
EXTT9=
EXTT10=
PLAYORDER=
